<svg xmlns="http://www.w3.org/2000/svg" width="134" height="19" viewBox="0 0 134 19"><path fill-rule="evenodd" d="M9.716 5.607l2.315 4.761H7.434l2.282-4.76zM8.434.388h2.573l8.52 17.755h-3.75l-2.134-4.37H5.827l-2.078 4.37H0L8.434.389zm32.51 0h13.872v3.38h-10.45V7.02h6.322v3.382h-6.323v4.364h11.1v3.379H40.944V.388zm41.031 3.379h6.321c1.551 0 2.202.756 2.202 1.96 0 1.202-.593 1.896-2.29 1.896h-6.233V3.767zm4.946 7.264h-4.946v7.112h-3.423V.388h9.775c3.426 0 5.681 1.931 5.681 5.28 0 2.317-1.29 4.278-3.365 5.058l4.09 7.418H90.87l-3.948-7.113zm32.739-1.75c0-3.466 2.34-5.879 5.412-5.879 3.11 0 5.42 2.413 5.42 5.88 0 3.43-2.31 5.844-5.42 5.844-3.072 0-5.412-2.376-5.412-5.845zm-3.485 0c0-5.364 3.775-9.281 8.897-9.281C130.197 0 134 3.917 134 9.28c0 5.363-3.803 9.25-8.928 9.25-5.121 0-8.897-3.887-8.897-9.25"/></svg>