<svg version="1" id="Layer_1" xmlns="http://www.w3.org/2000/svg" width="180" height="70" viewBox="0 0 180 70"><style>.st0{fill:#ffd100}.st1{fill:#005cb8}</style><path class="st1" d="M17.1 38.6c-1 1-2 1.6-3.5 1.6-2.2 0-3.8-1.7-3.8-4.1V36c0-2.3 1.6-4.1 3.6-4.1 1.5 0 2.5.7 3.4 1.7l.2.2 3-3.2-.1-.1c-1.7-1.9-3.7-2.7-6.4-2.7-2.4 0-4.5.9-6.1 2.5C5.8 31.8 5 33.9 5 36.1v.1c0 2.2.9 4.3 2.4 5.9 1.6 1.6 3.7 2.4 6 2.4 3.4 0 5.2-1.4 6.6-2.9l.1-.2-2.9-2.9-.1.1zM59.5 24h-4.8v4h-2v4h2v7.6c0 3.4 1.4 4.9 4.7 4.9 1.4 0 2.6-.3 3.6-.9l.1-.1v-3.9l-.3.2c-.7.4-1.4.5-2.1.5-.9 0-1.2-.4-1.2-1.3v-7h3.7v-4h-3.7v-4zm13.2 3.7c-2.4 0-4.6.9-6.3 2.4-1.6 1.6-2.5 3.7-2.5 5.9v.1c0 2.3.9 4.3 2.5 5.9 1.6 1.6 3.8 2.4 6.2 2.4 2.4 0 4.6-.9 6.3-2.5 1.6-1.6 2.5-3.7 2.5-5.9v-.1c0-2.3-.9-4.4-2.5-5.9-1.6-1.4-3.8-2.3-6.2-2.3zm3.8 8.5c0 2.4-1.6 4.1-3.9 4.1-2.2 0-3.9-1.8-3.9-4.1v-.1c0-2.4 1.6-4.1 3.9-4.1 2.2 0 3.9 1.8 3.9 4.2zm11.1-5.7V28h-4.8v16.1h4.8v-6.2c0-3.5 1.6-5.3 4.6-5.3h.4v-4.9h-.2c-2.2-.1-3.8.8-4.8 2.8zm43.3-2.8c-2 0-3.7.8-5.1 2.3-.9-1.5-2.5-2.3-4.5-2.3-2.2 0-3.5 1.1-4.4 2.1V28h-4.8v16.1h4.8V35c0-1.9.9-3 2.5-3 2 0 2.4 1.6 2.4 3v9.2h4.8V35c0-1.9.9-3 2.5-3 2 0 2.4 1.6 2.4 3v9.2h4.8V33.7c.1-3.8-1.9-6-5.4-6zm-98.7 2.2c-1-1.3-2.6-2.2-4.5-2.2-4.1 0-7.6 3.8-7.6 8.4v.1c0 4.6 3.4 8.3 7.6 8.3 1.9 0 3.5-.9 4.5-2.2v1.9H37V28h-4.8v1.9zm.2 6.3c0 2.4-1.5 4.1-3.7 4.1-2.1 0-3.8-1.8-3.8-4.1v-.1c0-2.4 1.5-4.1 3.7-4.1s3.8 1.8 3.8 4.2zm72.8-6.3c-1-1.3-2.6-2.2-4.5-2.2-4.1 0-7.6 3.8-7.6 8.4v.1c0 4.6 3.4 8.3 7.6 8.3 1.9 0 3.5-.9 4.5-2.2v1.9h4.8V28h-4.8v1.9zm.2 6.3c0 2.4-1.5 4.1-3.7 4.1s-3.8-1.8-3.8-4.1v-.1c0-2.4 1.5-4.1 3.7-4.1s3.8 1.8 3.8 4.2zm44.3-8.2v1.9c-1-1.3-2.6-2.2-4.5-2.2-4.1 0-7.6 3.8-7.6 8.4v.1c0 4.6 3.4 8.3 7.6 8.3 1.9 0 3.5-.9 4.5-2.2v1.9h4.8V28h-4.8zm.2 8.2c0 2.4-1.5 4.1-3.7 4.1s-3.8-1.8-3.8-4.1v-.1c0-2.4 1.5-4.1 3.7-4.1s3.8 1.8 3.8 4.2zM43.7 32.8c0-.7.7-.8 1.4-.8 2.2 0 4.3 1.4 4.3 1.4l2-3.7-.2-.1c-1.7-1.2-4-1.9-6-1.9-2.2 0-6.4 1.3-6.4 5 0 5.7 8.4 4.6 8.4 6.8 0 .6-.8.8-1.7.8-2.6 0-4.9-1.8-4.9-1.8L38.3 42l.2.1c2 1.6 4.5 2.4 6.9 2.4 3.9 0 6.6-2.6 6.6-5 .1-5.4-8.3-4.8-8.3-6.7z"/><path class="st0" d="M172.7 32c2.3 0 4.1 1.8 4.1 4.1s-1.9 4.1-4.1 4.1h-9.6c-2.3 0-4.1-1.8-4.1-4.1s1.9-4.1 4.1-4.1h9.6z"/></svg>