<svg version="1" id="Layer_1" xmlns="http://www.w3.org/2000/svg" width="180" height="70" viewBox="0 0 180 70"><style>.st0{fill:#7d227e}.st1{fill:#e67400}.st2{fill:#85b106}.st3{fill:#271d1c}.st4{fill:#f6c100}.st5{fill:#0076b9}.st6{fill:#00978a}.st7{fill:#db0213}.st8{fill:#dc0078}</style><path class="st1" d="M31.4 32.5c-1.4 0-2.4 1.1-2.4 2.4s1.1 2.4 2.4 2.4c1.4 0 2.4-1.1 2.4-2.4s-1.1-2.4-2.4-2.4"/><path class="st7" d="M8.9 32.5c-1.4 0-2.4 1.1-2.4 2.4s1.1 2.4 2.4 2.4c1.4 0 2.4-1.1 2.4-2.4s-1-2.4-2.4-2.4"/><path class="st4" d="M52.1 32.5c-1.4 0-2.4 1.1-2.4 2.4s1.1 2.4 2.4 2.4c1.4 0 2.4-1.1 2.4-2.4s-1-2.4-2.4-2.4"/><path class="st2" d="M72.5 32.5c-1.4 0-2.4 1.1-2.4 2.4s1.1 2.4 2.4 2.4c1.4 0 2.5-1.1 2.5-2.4s-1.1-2.4-2.5-2.4"/><path class="st6" d="M91.9 32.5c-1.4 0-2.4 1.1-2.4 2.4s1.1 2.4 2.4 2.4c1.4 0 2.4-1.1 2.5-2.4-.1-1.3-1.2-2.4-2.5-2.4"/><path class="st5" d="M112.3 32.5c-1.4 0-2.4 1.1-2.4 2.4s1.1 2.4 2.4 2.4 2.4-1.1 2.4-2.4-1.1-2.4-2.4-2.4"/><path class="st0" d="M133.4 32.5c-1.4 0-2.4 1.1-2.4 2.4s1.1 2.4 2.4 2.4c1.4 0 2.5-1.1 2.5-2.4-.1-1.3-1.2-2.4-2.5-2.4"/><path class="st8" d="M154.8 32.5c-1.4 0-2.4 1.1-2.4 2.4s1.1 2.4 2.4 2.4c1.4 0 2.4-1.1 2.4-2.4s-1.1-2.4-2.4-2.4"/><path class="st7" d="M174.3 32.5c-1.4 0-2.4 1.1-2.4 2.4s1.1 2.4 2.4 2.4c1.3 0 2.4-1.1 2.4-2.4s-1-2.4-2.4-2.4"/><path class="st3" d="M24.3 40.2H14v-2h1.2v-6.7H14v-1.9h4.2v8.6h4v-6.7h-1v-1.9h5.2v1.9h-1.2v6.7h1.4v5.1h-2.3zm19.2-10.6c1.2 0 2.1.3 2.7.8.6.5.9 1.2.9 2 0 .4-.1.7-.3 1.1-.2.4-.5.7-.9 1 .3.1.6.3.8.5.2.2.4.4.5.6.1.2.2.5.2.7 0 .2.1.5.1.7 0 .5-.1.9-.3 1.3s-.4.7-.8 1c-.3.3-.7.5-1.2.6-.4.1-.9.2-1.5.2h-7v-2h1.2v-6.7h-1.1v-1.9h6.7zm-2.7 1.9v2.4h2.1c.4 0 .7-.1.9-.3.2-.2.4-.5.4-.9s-.1-.6-.3-.9c-.2-.2-.6-.3-1.1-.3h-2zm0 4.2v2.6H43c.5 0 .9-.1 1.1-.4.2-.3.4-.6.4-1s-.1-.7-.4-.9c-.2-.2-.6-.3-1.1-.3h-2.2zm21.6-6.3c1 0 1.8.2 2.4.5.6.3 1.1.8 1.4 1.3.3.5.5 1.1.6 1.7.2.5.2 1.1.2 1.6v1.1h-6.8c0 .9.2 1.5.6 2 .4.4 1.1.6 2.1.6.6 0 1.1-.1 1.6-.2s1.1-.3 1.6-.5l.6 1.8c-.7.4-1.4.6-2.2.8-.8.2-1.5.2-2.2.2-1 0-1.9-.2-2.6-.5-.7-.3-1.2-.7-1.6-1.2s-.6-1.1-.8-1.7c-.1-.7-.2-1.3-.2-2 0-.6.1-1.2.2-1.8.2-.7.4-1.3.8-1.8.4-.6.9-1 1.6-1.4.8-.3 1.7-.5 2.7-.5m0 2.1c-.4 0-.7.1-.9.2-.3.1-.5.3-.6.5-.2.2-.3.5-.4.7-.1.3-.1.5-.2.8h4c0-.3 0-.6-.1-.9-.1-.3-.2-.5-.3-.7-.1-.2-.3-.4-.6-.5-.3-.1-.6-.1-.9-.1m17 6.7h1.4v-6.7h-1.9v1.6h-2v-3.5h10.8v3.5h-2v-1.6h-1.9v6.7h1.5v2h-5.9zm28.1-3.3c0 .7-.1 1.4-.3 2.1-.2.7-.5 1.2-.9 1.7s-1 .9-1.7 1.2c-.7.3-1.5.4-2.5.4-.9 0-1.7-.1-2.4-.4-.7-.3-1.2-.7-1.6-1.2-.4-.5-.7-1.1-.9-1.7-.2-.7-.3-1.4-.3-2.1 0-.7.1-1.5.3-2.1s.5-1.2 1-1.8c.4-.5 1-.9 1.7-1.2.7-.3 1.5-.5 2.4-.5.9 0 1.8.1 2.4.4.7.3 1.2.7 1.6 1.2.4.5.7 1.1.9 1.8.2.8.3 1.5.3 2.2m-3.1 0c0-.4 0-.8-.1-1.2-.1-.4-.2-.8-.3-1.1s-.4-.6-.7-.8c-.3-.2-.6-.3-1.1-.3-.5 0-.8.1-1.1.3-.3.2-.5.4-.7.8-.2.3-.3.7-.4 1.1-.1.4-.1.8-.1 1.2 0 .5 0 .9.1 1.3s.2.8.3 1.1c.2.3.4.5.7.7s.7.3 1.1.3c.4 0 .8-.1 1.1-.3.3-.2.5-.4.7-.8.2-.3.3-.7.3-1.1.2-.3.2-.7.2-1.2m16-5.3v3c0 .6.1 1.1.3 1.4.2.3.6.4 1.2.4.4 0 .7 0 1.1-.1.4-.1.7-.2 1-.4v-4.3h3v8.5h1.4v1.8c-.5.2-.9.3-1.3.4-.4.1-.8.1-1 .1-.7 0-1.2-.2-1.5-.6-.3-.4-.5-.8-.5-1.4V36c-.5.2-1 .4-1.6.5-.6.1-1.1.2-1.6.2-.6 0-1.2-.1-1.6-.2s-.8-.4-1.1-.7-.5-.7-.6-1.1c-.1-.4-.2-.9-.2-1.4v-1.6H116v-1.9h4.4zm18.2 8.6h1.3v-6.7h-1.5v-1.9h4.4v8.6h1.2v1.9h-5.5v-1.9zm10.2.1l1.4.2V40c-.3.1-.6.2-1 .3-.4.1-.7.1-1 .1-.5 0-.8-.1-1.1-.2-.3-.1-.5-.3-.7-.6l-3.2-4.5v-.7l3-4.1c.2-.3.5-.6.7-.7.3-.1.6-.2 1-.2.3 0 .7 0 1 .1l.9.3-.2 1.6-1.2.1-2.5 3 2.9 3.8zm20.2-.1h1.6l.1 1.6c-.5.2-1 .4-1.5.5-.5.1-.9.1-1.3.1-.5 0-.8-.1-1.1-.2-.3-.2-.5-.5-.5-1.1-.4.3-.7.6-1.1.8-.4.2-.7.3-1 .4-.3.1-.6.1-.8.2h-.6c-.6 0-1.2-.1-1.6-.3-.4-.2-.8-.5-1-.8-.2-.3-.4-.6-.5-1-.1-.4-.1-.7-.1-1 0-.4.1-.8.2-1.1.2-.4.4-.7.7-1 .3-.3.7-.5 1.2-.7.5-.2 1-.3 1.6-.3l2.9-.2v-.5c0-.6-.1-1.1-.4-1.4-.3-.3-.8-.5-1.5-.5-.5 0-1.1 0-1.6.1-.6.1-1.1.2-1.6.4l-.3-.9c-.1-.3-.2-.6-.2-.9.6-.3 1.3-.5 2.1-.6.8-.1 1.6-.2 2.3-.2.6 0 1.2.1 1.7.2s.9.3 1.3.6c.3.3.6.7.8 1.1.2.5.3 1 .3 1.7v5zm-4.8-2.6c-.5.1-.9.2-1.2.5-.2.3-.4.6-.4.9 0 .5.1.9.3 1.1.2.2.6.4 1.1.4.3 0 .7-.1 1-.2.4-.2.7-.4 1-.7v-2.1l-1.8.1z"/></svg>