<svg width="67" height="67" viewBox="0 0 67 67" xmlns="http://www.w3.org/2000/svg"><title>Layer_1</title><g fill="none" fill-rule="evenodd"><path fill="#B2107F" d="M.8.8H67V67H.8z"/><path d="M40.5 43.6c-.1-.5 0-.7 0-1.2v-9.1c0-1.5-.7-2.5-1.8-3.4-1.1-.8-2.8-1.2-4.8-1.2-1.8 0-3.4.5-4.5 1.4-1.2.8-1.9 1.5-2.3 3.7h1.2c.4-2.2 1-2.2 1.9-2.8.9-.6 2.2-1.2 3.7-1.2.6 0 1.2.1 1.8.2.6.1 1.2.3 1.7.6s.9.6 1.2 1.1c.3.5.5.9.5 1.7 0 .5-.1.8-.4 1.1-.3.3-.7.6-1.2.8-.5.2-1.2.4-1.9.5-.7.1-1.6.2-2.5.3-.9.1-1.7.2-2.5.4s-1.6.4-2.2.8c-.6.4-1.2.8-1.6 1.4-.4.6-.6 1.3-.6 2.3 0 .8.2 1.5.5 2 .3.6.8 1 1.4 1.4.6.4 1.2.7 1.9.8.7.2 1.4.3 2.2.3 1.6 0 3.1-.3 4.3-.8 1.2-.5 1.8-1.3 2.9-2.2v.3c0 .5-.1.7 0 1.1.1.4.1 1.1.3 1.1h1.2c-.2-.1-.3-.8-.4-1.4zm-1.1-4.4c0 .9-.3 1.6-.7 2.2-.4.6-1.1 1.1-1.7 1.6-.7.4-1.4.7-2.2.9-.8.2-1.7.3-2.6.3-.4 0-.9-.1-1.4-.2-.5-.1-1-.3-1.5-.5s-.9-.6-1.2-1c-.3-.4-.5-1-.5-1.7 0-1.1.4-2 1.3-2.6.9-.6 2.4-1 4.4-1.2.6 0 1.1-.1 1.7-.2.6-.1 1.1-.2 1.6-.3.5-.1 1.1-.3 1.5-.4.4-.2.2-.4 1.3-.7v3.8zM49.6 29c-.9.3-1.8.7-2.5 1.4-.2.2-.4.4-.6.7-.2.2-.4.5-.4.8v-2.4H45V45h1.1v-9.3c0-.9.1-1.7.4-2.4.3-.7.7-1.4 1.3-1.9.5-.5 1.2-.9 2-1.1.8-.3 1.8-.4 2.9-.3v-1.1c-1.2-.2-2.2-.2-3.1.1zm5.3.5H56V45h-1.1zm0-5.6H56v2.2h-1.1zm-30.7 5.6h-1.7l-9.6 8.9V23.9h-1.1v21h1.1V40l4.2-4.3 6.5 9.2H25L18.1 35z" fill="#FFFFFE"/></g></svg>