<svg version="1" id="Layer_1" xmlns="http://www.w3.org/2000/svg" width="180" height="70" viewBox="0 0 180 70"><style>.st0{fill:#bbbdbf}.st1{fill:#cf0a2c}</style><path class="st0" d="M122.9 36l-8.3-8.3h-6.8L116 36zM89 26.9l8.3-8.2h-6.9l-8.2 8.2zm16.9-8.9l8.3-8.2h-6.9L99.1 18zm.3-8.2h-6.9L91.1 18h6.8zM80.6 27.1l-8.2-8.2h-6.9l8.3 8.2zm8.9 8.9l-8.3-8.2h-6.9l8.3 8.2zm24.6-9l-8.3-8.3h-6.9l8.3 8.3zm-41.6-9l8.3-8.2h-6.9L65.7 18zm25 17.9l-8.2-8.2h-6.9l8.2 8.2zm-48.8-8.1l8.3 8.3h6.8l-8.2-8.3zm15-8.9h-6.8l-8.3 8.2h6.9zm8.9-9.1h-6.8L57.5 18h6.9z"/><path class="st1" d="M114.7 26.8l8.2-8.3-8.2-8.2-8.2 8.2zm-41.8.7l-8.2-8.3-8.3 8.3 8.3 8.2zm33.5-.2l-8.2-8.2-8.2 8.2 8.2 8.3zm-25-.5l8.2-8.3-8.2-8.2-8.2 8.2zm42.1 8.8l8.2-8.2-8.2-8.2-8.2 8.2zm5.9 5.9c-4.8 0-7.8 2.8-7.8 7.4 0 4.6 3 7.3 7.8 7.3s7.8-2.8 7.8-7.3c.1-4.7-3-7.4-7.8-7.4zm0 10.7c-1.3 0-1.3-1.9-1.3-3.3s0-3.3 1.3-3.3 1.3 1.9 1.3 3.3 0 3.3-1.3 3.3zm23-15.1l-2.1 10.3h-.1l-2.3-10.3h-9.5v18.8h5.5V41.1h.1l3.3 14.8h5.3l3.4-14.8h.1v14.8h5.8V37.1zm-32.8 4.7h-12.4v4.6c0 1.8 0 3.8-1.5 5.4h-1.5v6.5h5.5v-2.5h6.1v2.5h5.5v-6.5h-1.7v-10zm-5.5 10.1H111c1-1.5 1.1-3.1 1.1-4.5v-1.5h2v6zm-82.8-4.5h-.1L29 37.1h-9.6v18.8h5.5V41.1h.2l3.2 14.8h5.4l3.4-14.8h.1v14.8H43V37.1h-9.6zm44.9-5.6h-6.7L66.1 48H66v-6.2h-6v14.1h6v-6.2h.1l3.5 6.2h6.6l-4.3-7.2zm-24.6-.3c-1.8 0-4 .3-6 .8V46c2.3-1.1 4.3-1.1 4.4-1.1 1.2 0 3 .3 3 1.7v.4h-.8c-3.2 0-8.1.1-8.1 4.9 0 2.3 1.4 4.2 4.4 4.2 1.3 0 3.2-.2 4.4-2h.1v1.7h5.6v-9c-.1-4.1-3.6-5.3-7-5.3zm1.4 9c0 1.6-.8 2.3-1.7 2.3-.8 0-1.4-.6-1.4-1.3 0-1.8 1.9-1.7 2.8-1.7h.3v.7z"/><path class="st1" d="M81.7 48.9c0-2.1 1.3-3.3 3.2-3.3.6 0 1.4.1 2.6.6v-4c-1.8-.5-3.3-.6-4.5-.6-6.2 0-7.8 4.2-7.8 7.3 0 4 2.5 7.4 7.8 7.4 1.4 0 2.9-.1 4.6-.7v-4c-1.3.6-2.2.7-2.7.7-2.1-.1-3.2-1.5-3.2-3.4zm12.8-.5h-.2v-6.6h-5.5v14.1h6l2.8-6.6h.1v6.6h5.5V41.8h-5.9z"/></svg>