<svg xmlns="http://www.w3.org/2000/svg" width="180" height="70" viewBox="0 0 180 70"><g fill="#EB008B"><path d="M144.249 39.375c-.571 1.876-2.29 3.682-4.009 4.106-1.312.221-2.274.05-2.943-.391-.708-.493-1.135-1.326-1.337-2.123a4.952 4.952 0 0 1-.071-.828c0-1.718.905-3.372 2.569-4.641a4.326 4.326 0 0 1 3.397-.672c.644.149 1.524.541 2.074 1.55.308.547.457 1.243.457 1.921.001.374-.032.743-.137 1.078m-66.411 0c-.533 1.887-2.146 3.632-3.864 4.057-1.283.246-2.419.1-3.088-.341-.708-.493-1.099-1.308-1.323-2.123-.089-.375-.086-.554-.086-.828 0-1.718.906-3.372 2.57-4.641a4.327 4.327 0 0 1 3.397-.672c.644.149 1.526.541 2.075 1.55.308.547.469 1.243.469 1.921 0 .373-.048.741-.15 1.077m70.738-7.583a.462.462 0 0 0-.104-.306.447.447 0 0 0-.354-.151h-2.363a.447.447 0 0 0-.449.353l-.181.911c-.526-.48-1.051-.787-1.801-1.082l-.239-.106a.479.479 0 0 0-.086-.027c-2.57-.573-5.15.213-7.264 2.214a9.945 9.945 0 0 0-2.376 3.362l2.354-12.829a.385.385 0 0 0-.063-.311.34.34 0 0 0-.27-.133l-3.158.004c-.1 0-.19.056-.257.13 0 0-9.487 12.657-10.982 14.373.54-2.112 2.508-14.055 2.508-14.055a.425.425 0 0 0-.069-.319.34.34 0 0 0-.265-.128l-3.317-.001a.353.353 0 0 0-.258.133L103.686 42.47c-.268-2.716-1.539-5.673-1.539-5.673-2.084-4.342-6.675-5.811-9.391-3.479a2.2 2.2 0 0 0-.436.205c2.06-2.889 6.814-2.651 9.907.964 0 0 1.417 1.727 2.424 4.298.269-.905.431-1.846.479-2.807-1.658-2.28-3.528-3.617-3.528-3.617-3.881-2.661-8.499-1.672-9.788 1.606a2.15 2.15 0 0 0-.33.547c.36-3.546 4.595-5.757 9.052-4.197 0 0 2.161.807 4.343 2.591-.031-.142-.061-.283-.097-.427a11.943 11.943 0 0 0-1.02-2.671c-2.543-1.12-4.8-1.326-4.8-1.326-4.808-.342-8.385 3.057-7.634 6.664a2.205 2.205 0 0 0 .012.521c-1.611-3.282.978-7.482 5.692-8.413 0 0 2.208-.391 4.929.021a11.68 11.68 0 0 0-2.351-1.936c-2.729.326-4.761 1.284-4.761 1.284-4.332 2.145-5.758 6.911-3.326 9.652.077.165.174.317.288.455-3.037-2.015-2.87-6.983.765-10.191 0 0 1.711-1.449 4.256-2.474a11.356 11.356 0 0 0-3.238-.492c-2.125 1.645-3.369 3.434-3.369 3.434-2.714 4.089-1.568 8.978 1.944 10.073l.014.015.046.021c.103.072.214.136.329.188-3.614-.21-5.909-4.594-4.343-9.214 0 0 .728-2.01 2.331-4.125-.917.245-1.788.595-2.601 1.041-1.036 2.51-1.229 4.697-1.229 4.697-.334 4.843 2.953 8.459 6.472 7.773a1.958 1.958 0 0 0 .577-.022c-3.228 1.616-7.346-1.013-8.259-5.792 0 0-.37-2.162 0-4.857-.772.744-1.451 1.6-2.01 2.556.347 2.656 1.234 4.605 1.234 4.605 2.128 4.432 6.871 5.87 9.56 3.326l.019-.004.056-.041c.119-.063.23-.139.336-.225-1.971 3.116-6.883 2.956-10.051-.747 0 0-1.547-2.09-2.4-4.501a.786.786 0 0 0-.167-.312.53.53 0 0 0-.374-.133h-2.365c-.216 0-.39.116-.502.357 0 0-.128.279-.212.832-.526-.479-1.129-.753-1.699-1.001 0 0-.307-.107-.336-.114-2.558-.633-5.157.19-7.271 2.191a9.804 9.804 0 0 0-2.628 4.053s-.018.035-.045.096l1.08-5.883a.461.461 0 0 0-.453-.54l-2.625.001a.46.46 0 0 0-.45.383l-2.606 14.441a.473.473 0 0 0 .099.381c.086.106.214.098.351.098l2.619-.001c.224 0 .415-.088.452-.312l1.044-5.877c.011.04.06 1.237.165 1.829.391 2.21 2.322 4.269 4.396 4.688 1.812.332 3.75-.132 5.664-1.333l-.098.526a.51.51 0 0 0-.008.086c0 .107.02.163.089.248.086.106.233.138.369.138l2.348.006c.222 0 .412-.084.452-.306l2.06-11.365c1.55 1.866 3.572 3.458 3.572 3.458 3.902 2.676 8.549 1.66 9.807-1.66.125-.146.229-.31.311-.485-.367 3.542-4.598 5.748-9.053 4.188 0 0-1.98-.74-4.064-2.371.017.08.033.159.053.238.246.976.605 1.899 1.068 2.762 2.427 1.014 4.52 1.204 4.52 1.204 4.77.34 8.33-3.006 7.648-6.585a2.139 2.139 0 0 0 .024-.485c1.497 3.265-1.085 7.378-5.746 8.297 0 0-2.082.369-4.691.013a11.672 11.672 0 0 0 2.106 1.78c2.704-.334 4.711-1.279 4.711-1.279 4.244-2.102 5.698-6.715 3.473-9.481a2.215 2.215 0 0 0-.315-.545c2.913 2.063 2.703 6.943-.882 10.111 0 0-1.745 1.476-4.328 2.502 1.014.346 2.064.551 3.129.601 2.237-1.682 3.549-3.572 3.549-3.572 2.709-4.078 1.576-8.956-1.92-10.066a1.964 1.964 0 0 0-.437-.231c3.629.192 5.938 4.586 4.367 9.216 0 0-.788 2.183-2.538 4.393.14-.03.276-.06.416-.096a11.618 11.618 0 0 0 2.499-.971c1.084-2.565 1.282-4.83 1.282-4.83.331-4.773-2.858-8.354-6.32-7.799a2.016 2.016 0 0 0-.533-.045c3.197-1.416 7.169 1.202 8.063 5.885 0 0 .536 2.225.138 4.854a6.035 6.035 0 0 1-.538 1.521c-.092.165-.206.355-.345.58l.006-.006-.013.02c-.003.005-.001.007-.002.011a.404.404 0 0 0-.02.343.34.34 0 0 0 .312.203l3.73.001a.348.348 0 0 0 .275-.124s12.301-13.429 13.717-15.147c-.542 2.846-1.626 9.709-2.635 14.851a.36.36 0 0 0 .069.293c.066.081.165.13.269.128l2.924-.001a.345.345 0 0 0 .259-.121s9.903-13.397 11.374-15.145c-.611 2.854-1.645 9.773-2.653 14.832a.346.346 0 0 0 .063.295.344.344 0 0 0 .269.143h2.882a.353.353 0 0 0 .332-.273l1.062-6.249c.004.218-.004.392-.004.392-.008.585-.208 1.176-.103 1.768.39 2.21 2.321 4.269 4.396 4.688 1.812.332 3.751-.132 5.664-1.333l-.098.526a.469.469 0 0 0 .096.381c.087.107.217.098.353.098l2.348.002c.222.001.411-.087.451-.309l2.121-11.441.507-3.089zm16.683 13.563c-1.051-1.714-4.036-6.713-4.305-7.153.353-.425 4.087-5.043 4.84-5.946l-.331 1.789a.462.462 0 0 0 .448.549h1.291c-.133.818-1.553 8.344-1.943 10.761m9.115-13.859a.458.458 0 0 0-.349-.165l-2.659-.001c.142-.831.737-3.978.737-3.978a.471.471 0 0 0-.1-.377.453.453 0 0 0-.349-.165h-2.635a.457.457 0 0 0-.448.385s-.649 3.518-.756 4.146c-.232.007-.643.002-.643.002l-.396.002-.424-.002a.435.435 0 0 0-.393.198.445.445 0 0 0-.375-.2l-2.343.001-.687.001a.445.445 0 0 0-.336.139s-2.131 2.737-3.379 4.115c.366-2.182 1.489-8.246 1.489-8.246.003-.027.006-.052.006-.078a.466.466 0 0 0-.107-.298.45.45 0 0 0-.346-.165l-2.592-.006a.458.458 0 0 0-.451.383c-.06.356-.415 2.058-.768 4.18-.004-.007-.007-.014-.013-.021-.09-.104-.222-.192-.357-.188-1.085.032-2.277.484-3.132 1.044l.055-.335a.48.48 0 0 0-.099-.381c-.086-.104-.214-.141-.349-.142h-2.369c-.219-.002-.408.13-.451.35l-.067.365-2.53 14.049a.437.437 0 0 0 .107.363.46.46 0 0 0 .362.153l1.169.001h1.1a.444.444 0 0 0 .442-.361l1.737-8.719c.574-2.209 2.016-2.867 3.29-3.057.065-.01.325-.007.379-.042l-1.925 11.648a.46.46 0 0 0 .45.53h2.547a.45.45 0 0 0 .437-.315c.077-.254.742-3.844 1.109-6.005.94 1.455 3.702 6.116 3.702 6.116a.449.449 0 0 0 .381.206l2.841.001c.055 0 .107-.063.156-.082.065.032.136.082.209.082h2.963a.453.453 0 0 0 .446-.377s1.995-10.936 2.117-11.654l2.848-.004a.456.456 0 0 0 .447-.384l.4-2.336a.549.549 0 0 0 .006-.08.45.45 0 0 0-.104-.296M59.216 38.341a4.02 4.02 0 0 1-.143 1.034c-.491 1.907-2.212 3.659-3.93 4.085-1.324.262-2.354.087-3.023-.353-.708-.494-1.169-1.305-1.338-2.13a3.483 3.483 0 0 1-.08-.833c0-1.718.955-3.377 2.619-4.646a4.326 4.326 0 0 1 3.397-.672c.643.15 1.436.587 2.029 1.569.324.535.489 1.233.469 1.946m-21.927-1.153c.708-1.369 2.213-2.206 3.511-2.39 1.409-.101 2.045.244 2.658.781.559.567.825 1.099.879 1.612-.749.007-5.96-.013-7.048-.003M64.162 26.98a.456.456 0 0 0-.352-.171h-2.365a.463.463 0 0 0-.449.373s-.815 4.008-1.092 5.338c-.527-.479-1.146-.756-1.717-1.004l-.24-.106a.524.524 0 0 0-.085-.027c-2.571-.573-5.151.213-7.265 2.214-1.251 1.167-2.148 2.553-2.656 4.053-.058-1.258-.391-2.477-.835-3.385a.274.274 0 0 0-.019-.034c-1.239-2.081-3.308-3.108-5.984-2.973a.184.184 0 0 0-.033.003c-2.96.369-5.927 2.367-7.369 5.212-.024.044-.045.091-.068.134l2.247-12.474a.375.375 0 0 0-.063-.308.339.339 0 0 0-.269-.133H32.47a.354.354 0 0 0-.256.126s-9.559 12.633-11.055 14.35c.441-2.155 2.474-14.052 2.474-14.052a.374.374 0 0 0-.07-.3.338.338 0 0 0-.265-.128l-2.988.004a.349.349 0 0 0-.258.129L1.084 46.024a.353.353 0 0 0-.054.372c.056.124.177.232.311.232 0 0 2.927.004 3.807-.004a.353.353 0 0 0 .273-.13s12.034-13.846 13.45-15.565c-.542 2.846-1.666 10.135-2.762 15.268a.352.352 0 0 0 .069.294.348.348 0 0 0 .268.135l2.924-.001a.347.347 0 0 0 .257-.131s10-13.836 11.47-15.584c-.611 2.854-1.554 10.213-2.753 15.287a.356.356 0 0 0 .064.297.34.34 0 0 0 .269.132h2.835a.349.349 0 0 0 .332-.271l1.083-5.879c-.013 1.26.235 2.495.761 3.491 1.054 1.866 2.949 2.982 5.206 3.071 3.245 0 6.338-1.979 7.715-4.923a.475.475 0 0 0-.026-.448.46.46 0 0 0-.388-.218h-2.427a.458.458 0 0 0-.341.156c-1.152 1.309-2.447 1.988-3.847 2.021-1.407.035-2.647-.774-3.166-2.063l-.046-.166c-.074-.252-.131-.467-.131-.639 0-.049.008-.093.017-.134l10.893-.005a.453.453 0 0 0 .308-.122 9.47 9.47 0 0 0 .147 1.768c.391 2.21 2.321 4.269 4.396 4.688 1.812.332 3.75-.132 5.663-1.333l-.098.526c-.004.029-.008.058-.008.086 0 .107.037.211.106.295.086.107.215.098.352.098l2.348-.001c.22 0 .411-.085.451-.306l3.448-18.957a.466.466 0 0 0-.098-.381"/><path d="M64.914 30.904l2.614-.002c.222 0 .411-.223.45-.444l.567-3.097a.473.473 0 0 0-.448-.554l-2.634.002c-.219-.002-.41.175-.452.394l-.548 3.082c-.026.137.009.342.096.449s.218.17.355.17m110.224-4.162h.71c.233 0 .61-.059.61-.457 0-.191-.132-.428-.55-.428h-.771v.885zm0 1.842h-.682v-3.257h1.493c.189 0 1.219 0 1.219.973 0 .62-.436.796-.594.87l.594 1.415h-.726l-.522-1.297h-.782v1.296zm.581.871c1.348 0 2.437-1.121 2.437-2.491 0-1.401-1.089-2.492-2.437-2.492-1.337 0-2.439 1.091-2.439 2.492-.001 1.37 1.088 2.491 2.439 2.491m0-5.529c1.625 0 2.973 1.326 2.973 3.038 0 1.665-1.32 3.022-2.973 3.022-1.656 0-2.976-1.358-2.976-3.022 0-1.712 1.336-3.038 2.976-3.038"/></g></svg>