<svg version="1" id="Layer_1" xmlns="http://www.w3.org/2000/svg" width="180" height="70" viewBox="0 0 180 70"><style>.st0{fill:#00985f}</style><path class="st0" d="M20.9 19.6v15.8c0 .7-.5 1.3-1.3 1.3h-1.9c-.1 0-.2.1-.2.2v13.3c.5 0 .9.1 1.4.1 8.5 0 15.4-6.9 15.4-15.4 0-7.9-5.8-14.4-13.4-15.3zm-.4 23.7c-1.1 0-1.9-.9-1.9-1.9 0-1.1.9-1.9 1.9-1.9 1.1 0 1.9.9 1.9 1.9.1 1-.8 1.9-1.9 1.9zm4.5 0c-1.1 0-1.9-.9-1.9-1.9 0-1.1.9-1.9 1.9-1.9 1.1 0 1.9.9 1.9 1.9 0 1-.8 1.9-1.9 1.9zm4.6 0c-1.1 0-1.9-.9-1.9-1.9 0-1.1.9-1.9 1.9-1.9 1.1 0 1.9.9 1.9 1.9 0 1-.9 1.9-1.9 1.9z"/><path class="st0" d="M19 19.5c-8.5 0-15.4 6.9-15.4 15.4 0 7.4 5.2 13.6 12.1 15V36c0-.6.5-1.2 1.2-1.3h1.9c.1 0 .2-.1.2-.2v-15zm-3 12.6c-1.1 0-1.9-.9-1.9-1.9 0-1.1.9-1.9 1.9-1.9 1.1 0 1.9.9 1.9 1.9 0 1-.8 1.9-1.9 1.9zm157-4.2v5.8h-7.8v-5.8h-3.9v15.4h3.9V37h7.8v6.3h3.8V27.9zm-64.1 1.7c-.6-1.4-1.9-2.1-3.2-2.1-1.3 0-2.5.7-3.2 2.1l-6.2 13.7h4.1l1.4-3.3h8l1.4 3.3h4.1l-6.4-13.7zm-5.9 7.3l2.4-5.6c.1-.2.2-.2.3-.2.1 0 .3 0 .3.2l2.4 5.6H103zM63.1 25.1c-1.8 0-3 1-3.8 2.9l-5 11.6-5-11.6c-.8-1.9-2-2.9-3.8-2.9-1.7 0-3.4 1.2-3.4 3.8v14.3h3.8V29.3L51 40.8c.6 1.6 1.8 2.6 3.3 2.6 1.6 0 2.7-1 3.3-2.6l5.1-11.5v13.9h3.8V29c.1-2.7-1.7-3.9-3.4-3.9zM73.4 40c-.2 0-.4-.2-.4-.4v-2.7h9.6v-3.2H73v-2.4c0-.2.2-.4.4-.4h9.5v-3.3H71.5c-1.4 0-2.3 1.1-2.3 2.3v10.8c0 1.2 1 2.3 2.3 2.3h11.4v-3.3h-9.5v.3zm15.9 3.3V31.5c0-.2.2-.4.4-.4h9.5v-3.3H87.7c-1.4 0-2.3 1.1-2.3 2.3v13l3.9.2zm69.5-7.7c0-5.3-2.4-7.9-8.1-7.9h-1.4c-5.8 0-8.1 2.5-8.1 7.9 0 5.2 2.4 7.9 8.1 7.9h1.3c5.8-.1 8.2-2.7 8.2-7.9zm-8.2 4.6h-1.3c-3.2 0-4.4-1.4-4.4-4.6 0-3.1 1.1-4.6 4.4-4.6h1.3c3.3 0 4.4 1.5 4.4 4.6 0 3.1-1.2 4.6-4.4 4.6zm-20.1-14.8h-7.6c-5.7 0-8 2.9-8 7.9 0 .8.1 1.5.2 2.2.6 3.5 2.7 5.7 8.1 5.7h1.7v2h3.8v-2h1.6c5.3 0 7.4-2.2 8.1-5.7.1-.6.2-1.4.2-2.2-.2-5-2.5-7.9-8.1-7.9zM124.7 38H123c-2.6 0-3.5-1-4.1-2.5-.2-.5-.2-1.4-.2-2.2 0-3.3 1.5-4.6 3.7-4.6h2.4l-.1 9.3zm9.7-2.4c-.5 1.5-1.5 2.5-4.1 2.5h-1.7v-9.4h2.4c2.2 0 3.7 1.4 3.7 4.6-.1.9-.1 1.6-.3 2.3z"/></svg>