<svg width="70" height="70" viewBox="0 0 70 70" xmlns="http://www.w3.org/2000/svg"><title>nikon</title><defs><linearGradient x1="-76.57%" y1="150.511%" x2="103.729%" y2="-3.051%" id="a"><stop stop-color="#FFE02F" offset="0%"/><stop stop-color="#FFF" offset="34%"/><stop stop-color="#FFF" offset="66%"/><stop stop-color="#FFE02F" offset="100%"/></linearGradient><linearGradient x1="-56.355%" y1="139.293%" x2="103.41%" y2="-3.062%" id="b"><stop stop-color="#FFE02F" offset="0%"/><stop stop-color="#FFF" offset="35.5%"/><stop stop-color="#FFF" offset="64.5%"/><stop stop-color="#FFE02F" offset="100%"/></linearGradient><linearGradient x1="-40.146%" y1="129.354%" x2="103.038%" y2="-2.688%" id="c"><stop stop-color="#FFE02F" offset="0%"/><stop stop-color="#FFF" offset="37%"/><stop stop-color="#FFF" offset="63%"/><stop stop-color="#FFE02F" offset="100%"/></linearGradient><linearGradient x1="-26.545%" y1="119.889%" x2="102.777%" y2="-2.934%" id="d"><stop stop-color="#FFE02F" offset="0%"/><stop stop-color="#FFF" offset="38.5%"/><stop stop-color="#FFF" offset="61.5%"/><stop stop-color="#FFE02F" offset="100%"/></linearGradient><linearGradient x1="-14.999%" y1="111.946%" x2="102.64%" y2="-2.634%" id="e"><stop stop-color="#FFE02F" offset="0%"/><stop stop-color="#FFF" offset="40%"/><stop stop-color="#FFF" offset="60%"/><stop stop-color="#FFE02F" offset="100%"/></linearGradient><linearGradient x1="-5.334%" y1="104.404%" x2="107.442%" y2="-6.607%" id="f"><stop stop-color="#FFE140" offset="0%"/><stop stop-color="#FFF" offset="41.5%"/><stop stop-color="#FFF" offset="58.5%"/><stop stop-color="#FFE02F" offset="100%"/></linearGradient><linearGradient x1="-2.925%" y1="102.971%" x2="120.761%" y2="-24.608%" id="g"><stop stop-color="#FFE24F" offset="0%"/><stop stop-color="#FFF" offset="43%"/><stop stop-color="#FFF" offset="57%"/><stop stop-color="#FFE02F" offset="100%"/></linearGradient><linearGradient x1="-3.667%" y1="103.936%" x2="157.78%" y2="-67.869%" id="h"><stop stop-color="#FFE45E" offset="0%"/><stop stop-color="#FFF" offset="44.5%"/><stop stop-color="#FFF" offset="55.5%"/><stop stop-color="#FFE02F" offset="100%"/></linearGradient><linearGradient x1="-5.34%" y1="105.897%" x2="224.725%" y2="-144.312%" id="i"><stop stop-color="#FFE56B" offset="0%"/><stop stop-color="#FFF" offset="46%"/><stop stop-color="#FFF" offset="54%"/><stop stop-color="#FFE02F" offset="100%"/></linearGradient><linearGradient x1="-8.918%" y1="111.119%" x2="382.154%" y2="-319.641%" id="j"><stop stop-color="#FFE776" offset="0%"/><stop stop-color="#FFF" offset="47.5%"/><stop stop-color="#FFF" offset="52.5%"/><stop stop-color="#FFE02F" offset="100%"/></linearGradient></defs><g fill="none" fill-rule="evenodd"><path fill="#FD0" d="M.333.238H69.75v69.416H.333z"/><path d="M52.927 49.393A422.335 422.335 0 0 0 .334 62.207v5.442a422.099 422.099 0 0 0 52.593-18.256z" fill="url(#a)"/><path d="M57.308 39.184A438.633 438.633 0 0 0 12.896 51.1 440.473 440.473 0 0 0 .333 55.394v4.581a439.858 439.858 0 0 0 56.975-20.791z" fill="url(#b)"/><path d="M61.508 29.436a443.98 443.98 0 0 0-42.689 12.855A446.353 446.353 0 0 0 .334 49.344v3.737a449.253 449.253 0 0 0 19.979-6.597 445.135 445.135 0 0 0 41.195-17.048z" fill="url(#c)"/><path d="M65.517 20.086a454.698 454.698 0 0 0-41.064 13.802A455.673 455.673 0 0 0 .334 44.097v2.744a457.845 457.845 0 0 0 25.615-9.12 454.649 454.649 0 0 0 39.568-17.635z" fill="url(#d)"/><path d="M69.38 11.068a467.65 467.65 0 0 0-39.533 14.764A469.719 469.719 0 0 0 .334 39.613v1.62A469.819 469.819 0 0 0 31.33 29.317a468.337 468.337 0 0 0 38.05-18.249z" fill="url(#e)"/><path d="M69.75 4.242v-.674a489.071 489.071 0 0 0-34.685 14.491A488.229 488.229 0 0 0 .333 35.873v.384a487.692 487.692 0 0 0 36.191-15.049A488.823 488.823 0 0 0 69.75 4.242z" fill="url(#f)"/><path d="M4.762 30.125a514.777 514.777 0 0 0 36.762-16.768A519.24 519.24 0 0 0 65.898.238h-4.146a518.173 518.173 0 0 0-21.653 10.297 513.805 513.805 0 0 0-35.337 19.59z" fill="url(#g)"/><path d="M10.898 23.521A550.128 550.128 0 0 0 56.125.238h-5.632a549.093 549.093 0 0 0-39.595 23.283z" fill="url(#h)"/><path d="M47.562.238h-4.838a592.389 592.389 0 0 0-25.733 16.723A593.923 593.923 0 0 0 47.562.238z" fill="url(#i)"/><path d="M40.428.238h-3.05A643.797 643.797 0 0 0 23.1 10.397 647.46 647.46 0 0 0 40.428.238z" fill="url(#j)"/><path d="M25.494 67.121l3.748-16.889h4.619l-2.014 8.983 3.73-4.504h5.166l-4.636 5.631 1.911 6.778H33.41l-1.904-6.423-1.508 6.423h-4.504v.001zM8.815 58.633l3.254 8.488h4.427l3.815-16.889h-4.56l-1.93 8.592-3.194-8.597H6.004L2.236 67.121h4.648c.529-2.707 1.235-5.565 1.931-8.488zm14.466 8.488l2.766-12.402H21.51l-2.765 12.402h4.536zm-1.539-15.12c0 .39.092 1.766 2.575 1.766 2.062 0 2.858-1.322 2.858-2.309 0-.663-.543-1.817-2.576-1.817-1.871 0-2.857 1.252-2.857 2.36zm43.638 2.55c-1.939-.577-4.344.381-5.53 2.023.115-.509.238-1.101.377-1.783h-4.603l-2.694 12.33h4.581l1.529-6.993c.28-1.286 1.315-1.837 2.231-1.601.396.108.938.406.759 1.479l-1.555 7.114h4.527l2.076-9.496c.441-2.092-1.278-2.947-1.698-3.073zM49.974 66.002c1.99-1.626 2.974-4.376 2.941-6.962-.033-2.488-2.14-4.847-5.804-4.847-6.984 0-8 5.444-8.202 6.437-.511 2.515.057 5.777 3.338 6.642 2.165.571 5.55.509 7.727-1.27zm-5.123-7.188c.329-.905 1.223-1.105 1.627-1.109 1-.008 1.274.585 1.188 1.145-.241 1.552-.778 3.519-.977 4.146a.512.512 0 0 0-.007.023c-.218.686-.863 1.084-1.623 1.084-.769 0-1.233-.484-1.167-1.101.112-1.04.771-3.671.959-4.188z" fill="#FFF6D2"/><path d="M25.494 67.121l3.748-16.889h4.619l-2.014 8.983 3.73-4.504h5.166l-4.636 5.631 1.911 6.778H33.41l-1.904-6.423-1.508 6.423h-4.504v.001zM8.815 58.633l3.254 8.488h4.427l3.815-16.889h-4.56l-1.93 8.592-3.194-8.597H6.004L2.236 67.121h4.648c.529-2.707 1.235-5.565 1.931-8.488zm14.466 8.488l2.766-12.402H21.51l-2.765 12.402h4.536zm-1.539-15.12c0 .39.092 1.766 2.575 1.766 2.062 0 2.858-1.322 2.858-2.309 0-.663-.543-1.817-2.576-1.817-1.871 0-2.857 1.252-2.857 2.36zm43.638 2.55c-1.939-.577-4.344.381-5.53 2.023.115-.509.238-1.101.377-1.783h-4.603l-2.694 12.33h4.581l1.529-6.993c.28-1.286 1.315-1.837 2.231-1.601.396.108.938.406.759 1.479l-1.555 7.114h4.527l2.076-9.496c.441-2.092-1.278-2.947-1.698-3.073zM49.974 66.002c1.99-1.626 2.974-4.376 2.941-6.962-.033-2.488-2.14-4.847-5.804-4.847-6.984 0-8 5.444-8.202 6.437-.511 2.515.057 5.777 3.338 6.642 2.165.571 5.55.509 7.727-1.27zm-5.123-7.188c.329-.905 1.223-1.105 1.627-1.109 1-.008 1.274.585 1.188 1.145-.241 1.552-.778 3.519-.977 4.146a.512.512 0 0 0-.007.023c-.218.686-.863 1.084-1.623 1.084-.769 0-1.233-.484-1.167-1.101.112-1.04.771-3.671.959-4.188z" fill="#000"/></g></svg>