<svg xmlns="http://www.w3.org/2000/svg" width="180" height="70" viewBox="0 0 180 70"><path fill="#F15D22" d="M92.068 36.789h-.154s-.867-2.325-1.913-4.293c-1.152-2.178-3.831-7.198-3.831-7.198h-5.383v20.741h4.917V34.104h.151s.795 2.172 1.851 4.096c1.253 2.284 4.238 7.84 4.238 7.84h5.039V25.298h-4.915v11.491zm-28.834 9.25h14.1v-4.545h-9.001v-3.642h7.69v-4.541h-7.69v-3.467h8.817v-4.546H63.234v20.741zm-22.072-4.545H32.16v-3.642h7.689v-4.541H32.16v-3.467h8.818v-4.546H27.062v20.741h14.1v-4.545zm-2.858 17.332l13.968-12.787h-3.781l3.411-6.19 3.413 6.19h5.947l-6.431-10.764L61.733 23.3H59.1l5.831-10.116-.065-.05-13.29 12.164h3.467l-3.08 5.794-3.085-5.794H42.96l6.072 10.201-7.263 12.591h2.64l-6.166 10.684.061.052zM8.802 29.845H13.9v16.194h5.096V29.845h5.099v-4.546H8.802v4.546zm155.291-4.873c-4.561 0-7.896 2.972-7.896 8.516v4.529c0 5.522 3.496 8.347 7.896 8.347 4.862 0 7.896-3.371 7.896-8.347v-4.529c-.001-5.592-3.385-8.516-7.896-8.516zm0 16.848c-1.443 0-2.797-.691-2.797-4.417v-3.348c.012-3.602 1.121-4.541 2.797-4.541 1.736 0 2.781.996 2.796 4.541.002.091.002 3.253.002 3.348 0 3.787-1.38 4.417-2.798 4.417zm-29.613-9.85c0-3.409-2.474-6.671-7.077-6.671h-8.216V46.04h5.099v-7.718h1.719l3.669 7.718h5.913l-4.485-8.653c1.63-.814 3.378-2.592 3.378-5.417m-7.466 2.096h-2.728v-4.194h2.728c1.53 0 2.37.777 2.37 2.098 0 1.316-.84 2.096-2.37 2.096m-25.382 11.973h14.1v-4.545h-9.001v-3.642h7.692v-4.541h-7.692v-3.467h9.001v-4.546h-14.1v20.741zm51.366-11.633v3.61c0 4.976-3.034 8.347-7.896 8.347-4.397 0-7.893-2.824-7.893-8.347v-4.53c0-5.543 3.334-8.516 7.893-8.516 4.047 0 7.188 2.352 7.79 6.875h-5.193c-.38-1.772-1.295-2.332-2.597-2.332-1.674 0-2.783.938-2.794 4.541v3.348c0 3.726 1.35 4.415 2.794 4.415 1.27 0 2.506-.502 2.753-3.319h-2.785v-4.093h7.928z"/></svg>