<svg width="32" height="28" viewBox="0 0 32 28" xmlns="http://www.w3.org/2000/svg"><title>telegram_icon@3x</title><g fill="none" fill-rule="evenodd"><path d="M8.492 15.581l-7.86-3.486c-.886-.392-.826-1.686.092-1.993L30.615.115c.782-.261 1.544.446 1.356 1.26l-5.973 25.74a1.05 1.05 0 0 1-1.693.583l-7.02-5.82-8.793-6.297z" fill="#EFF7FC"/><path d="M24.78 5.673L8.491 15.581l1.993 9.37a1.16 1.16 0 0 0 1.835.695l4.966-3.769-4.086-3.389L25.294 6.345c.354-.357-.087-.932-.515-.672z" fill="#C8DAEA"/><path d="M11.142 25.776c.366.168.815.146 1.178-.13l4.966-3.769-2.043-1.694-2.043-1.695-2.058 7.288z" fill="#A9C9DD"/></g></svg>