<svg width="288" height="39" viewBox="0 0 288 39" xmlns="http://www.w3.org/2000/svg"><title>D088DBAF-A9E7-477F-9805-123F65C447B1@3x</title><g fill="none" fill-rule="evenodd"><path fill="#FFFC37" d="M0 0h288v39H0z"/><path d="M199.915 15.543c-1.304 0-2.489.499-3.446 1.45v-.338a.73.73 0 0 0-.727-.747.74.74 0 0 0-.747.747v10.232c0 .467.38.747.747.747.35 0 .727-.286.727-.747v-6.29c0-1.95 1.546-3.54 3.446-3.54 1.9 0 3.445 1.59 3.445 3.54v6.29a.74.74 0 0 0 .748.747.74.74 0 0 0 .728-.747v-6.29c0-2.74-2.255-5.054-4.921-5.054zm-24.803 3.5c0-1.465 2.281-1.415 2.87-1.415.491 0 3.059.1 4.95.997v-2.443c-1.364-.434-3.62-.803-5.305-.803-2.689 0-6.422.896-6.422 3.956 0 4.641 8.842 2.725 8.842 4.713 0 1.466-2.212 1.442-2.797 1.442-.586 0-4.155-.15-5.982-1.514v2.679c1.486.666 3.462 1.084 6.402 1.084 2.686 0 6.227-.952 6.227-4.01 0-4.575-8.785-2.349-8.785-4.685zm41.384 1.971c-.242-2.374-1.792-3.957-3.895-3.957-2.545 0-3.663 2.015-3.871 3.957h7.766zm1.507.746c0 .394-.353.769-.726.769h-8.55c.242 2.374 1.783 3.956 3.874 3.956 1 0 2.353-.444 2.966-1.42.153-.249.351-.367.62-.367.397 0 .747.357.747.769a.745.745 0 0 1-.156.455l-.23.3c-.952 1.149-2.353 1.778-3.947 1.778-3.71 0-5.403-3.235-5.403-6.24 0-2.995 1.693-6.217 5.403-6.217 3.713 0 5.402 3.222 5.402 6.217zm-55.925 5.776h3.832V15.569h-3.832v11.967zm107.164-6.703l3.527-3.624a.757.757 0 0 0-.516-1.3.727.727 0 0 0-.54.235l-5.55 5.702v-9.09a.737.737 0 0 0-.727-.747.738.738 0 0 0-.746.747v14.131c0 .467.38.747.746.747.35 0 .727-.286.727-.747v-2.893l1.998-2.072 3.346 5.345c.141.22.368.345.619.345.395 0 .769-.352.769-.725a.756.756 0 0 0-.149-.422l-3.504-5.632zm-44.877-3.424c.447 0 .713-.383.713-.754 0-.36-.266-.732-.713-.732h-1.802v-3.168a.707.707 0 0 0-.714-.732.726.726 0 0 0-.735.732v3.168h-.943c-.44 0-.713.38-.713.732 0 .37.267.754.713.754h.943v7.56c0 1.76.874 2.65 2.602 2.65h.649c.447 0 .713-.372.713-.732 0-.372-.266-.755-.713-.755h-.65c-.948 0-1.152-.206-1.152-1.162v-7.56h1.802zm37.382-1.673c-1.303 0-2.488.5-3.447 1.451v-.532a.729.729 0 0 0-.725-.747.74.74 0 0 0-.748.747v10.232c0 .467.38.747.748.747.35 0 .725-.286.725-.747V20.79c0-1.951 1.546-3.539 3.447-3.539.462 0 .747-.399.747-.769 0-.36-.3-.746-.747-.746zm-108.722 9.319c-.318.135-1.827.206-2.294.206-2.544 0-4.146-1.305-4.146-3.655 0-2.301 1.975-3.876 4.799-3.876.822 0 2.839.148 4.506.945v-2.64c-1.272-.446-3.444-.67-4.649-.67-4.788 0-8.247 2.238-8.247 6.241 0 4.524 4.02 6.137 7.5 6.137 1.361 0 3.652-.141 5.729-.84v-5.334h-3.198v3.486zm87.997-9.132c-.341 0-.598.223-.708.579l-2.709 8.19-2.658-8.171c-.176-.52-.46-.592-.738-.592-.382 0-.591.173-.72.594l-2.617 8.169-2.752-8.264a.735.735 0 0 0-.696-.516c-.407 0-.695.333-.695.764 0 .086.027.208.05.284l3.397 10.122c.118.365.352.552.698.552.362 0 .583-.176.72-.572l2.635-8.194 2.637 8.238c.11.34.356.528.697.528.345 0 .62-.206.74-.55l3.407-10.177a.576.576 0 0 0 .04-.21c0-.493-.361-.774-.728-.774zm11.547 5.837c0-2.814-1.58-4.703-3.93-4.703-2.348 0-3.926 1.89-3.926 4.703 0 2.782 1.614 4.725 3.927 4.725 2.35 0 3.929-1.899 3.929-4.725zm1.474 0c0 3.005-1.691 6.24-5.403 6.24-3.713 0-5.403-3.235-5.403-6.24 0-2.995 1.69-6.217 5.403-6.217 3.712 0 5.403 3.222 5.403 6.217zM51.407 13.567c-1.14 0-2.401.436-2.885.621l-.017-.298h-3.508v13.62h3.525v-10.2c.757-.49 1.945-.692 2.895-.467.95.228 1.412.84 1.412 2.607v8.061h3.526v-8.597c0-3.597-1.62-5.346-4.948-5.346zm-12.699 5.197c-.096-1.199-.998-2.142-2.308-2.142-1.41 0-2.292.839-2.646 2.142h4.954zm3.449.065c.037.454.055 1.494.038 2.726v.142H33.69c.313 1.835 1.337 2.87 3.22 2.903 2.572.046 4.462-.996 5.07-1.343v3.345c-1.107.559-3.033 1.183-5.003 1.183-5.153 0-6.989-3.57-6.989-6.911 0-2.005.558-3.817 1.572-5.115 1.14-1.454 2.813-2.226 4.844-2.226 1.757 0 3.159.517 4.17 1.534.902.909 1.45 2.213 1.583 3.762zM62.859 11h-3.526v11.82c0 1.631.272 2.769.86 3.573.697.948 1.823 1.41 3.445 1.41 1.305 0 2.565-.293 3.3-.528v-3.264c-.454.118-1.85.425-2.658.425-.516 0-.875-.113-1.096-.336-.325-.334-.325-.91-.325-1.46v-5.753c1.39 0 3.116.098 4.079.207V13.89h-4.079V11zm-38.637 5.759c-.673.023-1.599.092-1.944.118-2.545.185-2.928 2.543-2.928 3.94 0 1.434.313 2.468.93 3.072.457.447 1.154.701 1.947.681.81-.02 1.526-.262 1.995-.585v-7.226zm0-5.759h3.525v16.51H24.24l-.018-.295c-.721.39-1.577.584-2.605.584-1.52 0-2.845-.564-3.833-1.622-1.15-1.24-1.784-3.109-1.784-5.264 0-2.937 1.107-7.023 6.42-7.023h1.802V11zm51.645 8c-.828-.16-1.803-.336-2.366-.655-.277-.153-.423-.371-.415-.614.004-.239.162-.46.392-.585.516-.284 1.451-.43 2.862-.167 1.366.254 2.864.793 3.34 1v-3.293c-1.633-.833-3.082-1.158-4.715-1.128-1.518.027-2.826.432-3.794 1.175-1.02.786-1.589 1.914-1.648 3.26-.1 2.254 1.278 3.607 4.459 4.246.668.134 1.622.335 2.037.508.415.173.654.455.655.768.003.302-.207.59-.535.733-.6.259-1.556.217-2.185.152-1.822-.186-3.554-.852-4.192-1.142v3.378c1.078.564 2.772 1.211 4.788 1.175 2.307-.042 5.171-.747 5.693-3.874.194-1.157-.01-2.21-.59-3.034-.704-1.008-1.79-1.52-3.786-1.903zm14.613 5.09c-.758.492-1.944.693-2.896.466-.947-.226-1.413-.84-1.413-2.607v-8.06H82.65v8.598c0 3.596 1.619 5.343 4.944 5.343 1.141 0 2.403-.435 2.887-.618l.017.297h3.508v-13.62H90.48V24.09zm36.804 3.446h11.39v-2.724h-7.558v-2.247h4.54v-2.262h-4.54v-2.007h7.557V15.57h-11.39v11.967zm-11.062-11.965l6.573 11.966h-4.554l-4.336-8.976h-.044l-4.536 8.976h-4.221l6.483-11.966h4.635z" fill="#262626"/></g></svg>