<svg width="248" height="33" viewBox="0 0 248 33" xmlns="http://www.w3.org/2000/svg"><title>BD22A2EF-5908-4FE1-B5E2-731901BDA708@3x</title><g fill="none" fill-rule="evenodd"><path fill="#979797" d="M0 0h248v33H0z"/><path d="M170.437 13.741a4.19 4.19 0 0 0-2.95 1.194v-.278a.613.613 0 0 0-.622-.615c-.315 0-.64.23-.64.615v8.427c0 .384.325.614.64.614a.62.62 0 0 0 .622-.614v-5.18c0-1.607 1.324-2.916 2.95-2.916 1.626 0 2.95 1.309 2.95 2.916v5.18c0 .384.326.614.639.614.3 0 .624-.235.624-.614v-5.18c0-2.257-1.93-4.163-4.213-4.163zm-21.233 2.883c0-1.207 1.954-1.165 2.457-1.165.421 0 2.619.081 4.237.82v-2.011c-1.167-.358-3.098-.662-4.54-.662-2.302 0-5.498.738-5.498 3.258 0 3.822 7.569 2.244 7.569 3.881 0 1.208-1.893 1.188-2.394 1.188-.501 0-3.556-.124-5.12-1.247v2.206c1.271.549 2.963.893 5.48.893 2.299 0 5.33-.784 5.33-3.303 0-3.767-7.52-1.933-7.52-3.858zm35.427 1.623c-.207-1.955-1.534-3.26-3.334-3.26-2.179 0-3.136 1.66-3.314 3.26h6.648zm1.29.614c0 .325-.302.633-.621.633h-7.32c.208 1.955 1.527 3.259 3.317 3.259.855 0 2.014-.366 2.539-1.17.13-.205.3-.303.53-.303.34 0 .64.295.64.634a.599.599 0 0 1-.134.374l-.197.248c-.814.946-2.014 1.464-3.378 1.464-3.177 0-4.625-2.664-4.625-5.14 0-2.465 1.448-5.119 4.625-5.119 3.178 0 4.624 2.654 4.624 5.12zm-47.874 4.757h3.28v-9.855h-3.28v9.855zm91.736-5.52l3.02-2.985a.618.618 0 0 0 .197-.456c0-.333-.293-.615-.64-.615a.634.634 0 0 0-.462.194l-4.751 4.696v-7.486a.62.62 0 0 0-.622-.615c-.314 0-.639.23-.639.615v11.638c0 .384.325.614.64.614a.62.62 0 0 0 .621-.614V20.7l1.711-1.706 2.864 4.402a.628.628 0 0 0 .53.283c.338 0 .658-.29.658-.596a.608.608 0 0 0-.127-.348l-3-4.638zm-38.416-2.82a.61.61 0 0 0 .61-.62.601.601 0 0 0-.61-.604h-1.543v-2.609c0-.393-.315-.603-.611-.603-.308 0-.629.225-.629.603v2.609h-.807a.608.608 0 0 0-.61.603.61.61 0 0 0 .61.621h.807v6.227c0 1.448.748 2.182 2.227 2.182h.556a.6.6 0 0 0 .61-.603c0-.307-.227-.622-.61-.622h-.556c-.812 0-.987-.17-.987-.957v-6.227h1.543zm32-1.378c-1.115 0-2.13.413-2.95 1.195v-.438a.612.612 0 0 0-.622-.615c-.314 0-.64.23-.64.615v8.427c0 .384.326.614.64.614a.62.62 0 0 0 .622-.614v-5.022c0-1.607 1.323-2.914 2.95-2.914.395 0 .64-.329.64-.633a.637.637 0 0 0-.64-.615zm-93.07 7.675c-.271.111-1.563.17-1.963.17-2.178 0-3.549-1.076-3.549-3.01 0-1.896 1.69-3.193 4.108-3.193.704 0 2.43.123 3.858.779v-2.175c-1.09-.367-2.949-.55-3.98-.55-4.099 0-7.06 1.842-7.06 5.139 0 3.725 3.442 5.054 6.42 5.054 1.165 0 3.126-.117 4.904-.692v-4.394h-2.737v2.872zm75.329-7.52c-.292 0-.512.183-.606.476l-2.32 6.745-2.274-6.73c-.151-.428-.394-.487-.632-.487-.328 0-.506.143-.616.49l-2.241 6.727-2.356-6.806a.628.628 0 0 0-.595-.425c-.349 0-.595.274-.595.63a.89.89 0 0 0 .043.234l2.907 8.335c.101.3.302.454.598.454.31 0 .499-.144.616-.47l2.256-6.748 2.257 6.784c.094.28.305.434.597.434.295 0 .531-.17.634-.452l2.916-8.382a.614.614 0 0 0-.59-.81zm9.884 4.806c0-2.317-1.351-3.873-3.363-3.873-2.011 0-3.362 1.556-3.362 3.873 0 2.29 1.382 3.892 3.362 3.892 2.012 0 3.363-1.564 3.363-3.892zm1.262 0c0 2.475-1.448 5.139-4.625 5.139-3.178 0-4.625-2.664-4.625-5.14 0-2.465 1.447-5.119 4.625-5.119 3.177 0 4.625 2.654 4.625 5.12zM43.31 12.114c-.976 0-2.056.359-2.47.512l-.014-.246h-3.004v11.217h3.018v-8.401c.648-.404 1.665-.57 2.478-.385.813.188 1.209.692 1.209 2.147v6.639h3.018v-7.08c0-2.963-1.386-4.403-4.235-4.403zm-10.871 4.28c-.082-.987-.855-1.764-1.976-1.764-1.208 0-1.962.69-2.265 1.764h4.24zm2.952.053c.032.375.047 1.231.033 2.245v.117h-7.28c.268 1.511 1.144 2.365 2.755 2.391 2.202.038 3.82-.82 4.34-1.106v2.754c-.947.461-2.596.975-4.282.975-4.412 0-5.982-2.94-5.982-5.692 0-1.65.476-3.143 1.345-4.212.975-1.197 2.408-1.833 4.146-1.833 1.504 0 2.705.426 3.57 1.263.772.749 1.241 1.823 1.355 3.098zM53.113 10h-3.018v9.734c0 1.343.233 2.28.736 2.943.597.78 1.56 1.161 2.949 1.161a10.13 10.13 0 0 0 2.824-.435v-2.688c-.388.097-1.583.35-2.275.35-.441 0-.749-.093-.938-.277-.278-.275-.278-.749-.278-1.202v-4.738c1.19 0 2.667.081 3.491.17V12.38h-3.49V10zm-33.075 4.742c-.576.02-1.368.076-1.664.098-2.178.152-2.506 2.094-2.506 3.245 0 1.18.268 2.032.796 2.53.39.368.988.577 1.666.56.695-.017 1.306-.215 1.708-.482v-5.95zm0-4.742h3.018v13.597h-3.002l-.016-.244c-.617.321-1.35.481-2.23.481-1.3 0-2.435-.464-3.28-1.336-.985-1.02-1.528-2.56-1.528-4.334 0-2.419.947-5.784 5.496-5.784h1.542V10zm44.21 6.589c-.709-.133-1.543-.278-2.025-.54-.237-.126-.362-.306-.356-.506.004-.197.14-.379.336-.482.442-.233 1.242-.354 2.45-.137 1.17.21 2.452.653 2.859.823v-2.712c-1.398-.686-2.638-.953-4.036-.928-1.3.022-2.42.355-3.248.967-.873.648-1.36 1.576-1.41 2.686-.086 1.855 1.094 2.97 3.816 3.496.572.11 1.39.276 1.744.418.355.142.56.374.561.633.002.248-.177.485-.458.603-.514.213-1.333.18-1.87.126-1.56-.154-3.043-.702-3.59-.941v2.781c.924.465 2.374.998 4.1.968 1.974-.034 4.427-.615 4.873-3.19.166-.953-.009-1.82-.505-2.499-.602-.83-1.532-1.252-3.241-1.566zm12.51 4.191c-.65.405-1.665.57-2.48.384-.81-.186-1.21-.692-1.21-2.147v-6.638h-3.014v7.08c0 2.962 1.386 4.401 4.232 4.401.977 0 2.057-.358 2.471-.509l.015.245h3.003V12.379h-3.018v8.401zm31.504 2.838h9.75v-2.243h-6.469v-1.85h3.887v-1.863h-3.887v-1.653h6.469v-2.246h-9.75v9.855zm-9.469-9.854l5.627 9.854h-3.899l-3.711-7.392h-.038l-3.883 7.392h-3.614l5.55-9.854h3.968z" fill="#FFF"/></g></svg>